<svg width="23" height="23" viewBox="0 0 23 23" fill="none" xmlns="http://www.w3.org/2000/svg">
<path d="M12.2627 16.5794L16.5959 19.3306C17.1547 19.6831 17.8425 19.1587 17.6792 18.5139L16.4239 13.5788C16.39 13.442 16.3954 13.2984 16.4395 13.1646C16.4836 13.0307 16.5646 12.912 16.6733 12.8222L20.5594 9.58089C21.0667 9.15961 20.8087 8.30844 20.1467 8.26545L15.0741 7.93874C14.9357 7.93069 14.8026 7.88249 14.6912 7.80004C14.5797 7.71759 14.4947 7.60446 14.4465 7.47447L12.555 2.71137C12.5049 2.57372 12.4137 2.45482 12.2937 2.37079C12.1738 2.28677 12.0308 2.2417 11.8844 2.2417C11.7379 2.2417 11.595 2.28677 11.475 2.37079C11.355 2.45482 11.2638 2.57372 11.2138 2.71137L9.32227 7.47447C9.27406 7.60446 9.18903 7.71759 9.07757 7.80004C8.96611 7.88249 8.83305 7.93069 8.69464 7.93874L3.62202 8.26545C2.96 8.30844 2.70207 9.15961 3.20933 9.58089L7.09548 12.8222C7.20409 12.912 7.28513 13.0307 7.32924 13.1646C7.37335 13.2984 7.37875 13.442 7.34481 13.5788L6.18412 18.1528C5.98638 18.9265 6.81175 19.5542 7.47377 19.1329L11.5061 16.5794C11.6191 16.5075 11.7504 16.4693 11.8844 16.4693C12.0184 16.4693 12.1496 16.5075 12.2627 16.5794Z" fill="#E13C5A" stroke="#E13C5A" stroke-width="1.37563" stroke-linecap="round" stroke-linejoin="round"/>
</svg>
