<svg width="6" height="11" viewBox="0 0 6 11" fill="none" xmlns="http://www.w3.org/2000/svg">
<path d="M5.24447 5.26835L0.842468 0.86635C0.778821 0.806633 0.699568 0.766156 0.613876 0.749602C0.528185 0.733048 0.439557 0.741093 0.358248 0.772808C0.278131 0.806484 0.209775 0.863121 0.161793 0.935582C0.113812 1.00804 0.0883533 1.09309 0.0886252 1.17999V9.98399C0.0883533 10.0709 0.113812 10.1559 0.161793 10.2284C0.209775 10.3009 0.278131 10.3575 0.358248 10.3912C0.412546 10.4127 0.470403 10.4239 0.528825 10.4242C0.645716 10.4237 0.757968 10.3784 0.842468 10.2976L5.24447 5.89563C5.32713 5.81218 5.3735 5.69946 5.3735 5.58199C5.3735 5.46453 5.32713 5.35181 5.24447 5.26835Z" fill="black"/>
</svg>
